<svg xmlns="http://www.w3.org/2000/svg" viewBox="0 0 1582.082271 1108.917795" fill="#ffffff" role="img" aria-label="KONDO Technologie" xmlns:c2pa="http://c2pa.org/manifest"><metadata><c2pa:manifest>AAAWgmp1bWIAAAAeanVtZGMycGEAEQAQgAAAqgA4m3EDYzJwYQAAABZcanVtYgAAAEdqdW1kYzJtYQARABCAAACqADibcQN1cm46YzJwYTo0YWQ3NWZmMi1jNDM5LTRmY2UtODg5Zi01NjQ5NDNlZDI4M2MAAAADl2p1bWIAAAApanVtZGMyYXMAEQAQgAAAqgA4m3EDYzJwYS5hc3NlcnRpb25zAAAAALxqdW1iAAAARGp1bWRjYm9yABEAEIAAAKoAOJtxE2MycGEuaW5ncmVkaWVudC52MwAAAAAYYzJzaJ7omV++lpASzB8GjLa4kQwAAABwY2JvcqNpZGM6Zm9ybWF0bWltYWdlL3N2Zyt4bWxqaW5zdGFuY2VJRHgseG1wOmlpZDpjNmNlMDRmZC05ZTA3LTQyNjgtYjk4Ni1iNzZkNGRkYTA3ZDJscmVsYXRpb25zaGlwaHBhcmVudE9mAAAB4mp1bWIAAABBanVtZGNib3IAEQAQgAAAqgA4m3ETYzJwYS5hY3Rpb25zLnYyAAAAABhjMnNoOUaqu2oT0+V9Qk3RHoovwQAAAZljYm9yomdhY3Rpb25zgqJmYWN0aW9ua2MycGEub3BlbmVkanBhcmFtZXRlcnOha2luZ3JlZGllbnRzgaJjdXJseC1zZWxmI2p1bWJmPWMycGEuYXNzZXJ0aW9ucy9jMnBhLmluZ3JlZGllbnQudjNkaGFzaFggX6y8Iur78hYxbWGiDUXRytUoO162nN6xvRaf6h2IioykZmFjdGlvbngdY29tLmFudGhyb3BpYy5jbGF1ZGUucHJvdmlkZWRqcGFyYW1ldGVyc6F4H2NvbS5hbnRocm9waWMub3JpZ2luLWNvbmZpZGVuY2VndW5rbm93bmtkZXNjcmlwdGlvbnhmQ2xhdWRlIHByb3ZpZGVkIHRoaXMgZmlsZSBhdCB0aGUgcmVxdWVzdCBvZiBhIHVzZXIgYW5kIG1heSBoYXZlIGNyZWF0ZWQgb3IgbW9kaWZpZWQgdGhlIGZpbGUgY29udGVudHMubXNvZnR3YXJlQWdlbnShZG5hbWVmQ2xhdWRlcmFsbEFjdGlvbnNJbmNsdWRlZPUAAADIanVtYgAAAEBqdW1kY2JvcgARABCAAACqADibcRNjMnBhLmhhc2guZGF0YQAAAAAYYzJzaBqgWefPr/pC43MTRiopcBIAAACAY2JvcqVjYWxnZnNoYTI1NmNwYWRNAAAAAAAAAAAAAAAAAGRoYXNoWCDF7JhGnVGdYWtNb0qyfw+0qAkHnqcvAD4xxr3k+ckMyWRuYW1lbmp1bWJmIG1hbmlmZXN0amV4Y2x1c2lvbnOBomVzdGFydBjGZmxlbmd0aBkeBAAAAj5qdW1iAAAAJ2p1bWRjMmNsABEAEIAAAKoAOJtxA2MycGEuY2xhaW0udjIAAAACD2Nib3KlY2FsZ2ZzaGEyNTZpc2lnbmF0dXJleE1zZWxmI2p1bWJmPS9jMnBhL3VybjpjMnBhOjRhZDc1ZmYyLWM0MzktNGZjZS04ODlmLTU2NDk0M2VkMjgzYy9jMnBhLnNpZ25hdHVyZWppbnN0YW5jZUlEeCx4bXA6aWlkOmY2YjA4YTZhLTFlMWEtNDIyYi1iMmJiLWQyMWI4NDhlZGMyZXJjcmVhdGVkX2Fzc2VydGlvbnODomN1cmx4LXNlbGYjanVtYmY9YzJwYS5hc3NlcnRpb25zL2MycGEuaW5ncmVkaWVudC52M2RoYXNoWCBfrLwi6vvyFjFtYaINRdHK1Sg7Xrac3rG9Fp/qHYiKjKJjdXJseCpzZWxmI2p1bWJmPWMycGEuYXNzZXJ0aW9ucy9jMnBhLmFjdGlvbnMudjJkaGFzaFggL0E96Nd1K/o9Z+rNVUNLAafC6ythoKvo7nIUFy65G/KiY3VybHgpc2VsZiNqdW1iZj1jMnBhLmFzc2VydGlvbnMvYzJwYS5oYXNoLmRhdGFkaGFzaFggMJvW+/MDdO9Q5jsgTojDxVeF2zYT/Q0SYW55a1cEYwN0Y2xhaW1fZ2VuZXJhdG9yX2luZm+jZG5hbWVvQW50aHJvcGljIEZpbGVzZ3ZlcnNpb25lMS4wLjBrc3BlY1ZlcnNpb25lMi40LjAAABA4anVtYgAAAChqdW1kYzJjcwARABCAAACqADibcQNjMnBhLnNpZ25hdHVyZQAAABAIY2JvctKEWQISogEmGCFZAgowggIGMIIBjaADAgECAhRA5aAK7sI50L64g/oGQgU9Z1UTADAKBggqhkjOPQQDAzBJMRcwFQYDVQQKEw5BbnRocm9waWMsIFBCQzEuMCwGA1UEAxMlQW50aHJvcGljIENvbnRlbnQgQ3JlZGVudGlhbHMgUm9vdCBDQTAeFw0yNjA4MDcxODQzNTZaFw0yODA4MDYxOTQzNTZaMEQxFzAVBgNVBAoTDkFudGhyb3BpYywgUEJDMSkwJwYDVQQDEyBBbnRocm9waWMgQ2xhdWRlIENvbnRlbnQgU2lnbmluZzBZMBMGByqGSM49AgEGCCqGSM49AwEHA0IABJh6CmvLUBgFFNU0vUKlOVtE6djd17L5SuwX0LemFisBM3dkd/3cyjxFA3Qo5S46fX0/ihY0VZ7mfb9KF703t5OjWDBWMA4GA1UdDwEB/wQEAwIHgDAVBgNVHSUEDjAMBgorBgEEAYPoXgIBMAwGA1UdEwEB/wQCMAAwHwYDVR0jBBgwFoAUzlHiBIFOZFsj+OPEz5o+nMHXXMIwCgYIKoZIzj0EAwMDZwAwZAIwMXMdFJ4BetLLVY7ORuE9noqbbAZOZn/aArXyTwFAZfKrPzxF2vPoJNf1+UCdg1XGAjBwX1zd9WGqYkqmL5SFqw1QySjr1zJfpJM9+1rdDwSPLMOPOjKuiXjoU/pUUeG9RwmhY3BhZFkNngAAAAAAAAAAAAAAAAAAAAAAAAAAAAAAAAAAAAAAAAAAAAAAAAAAAAAAAAAAAAAAAAAAAAAAAAAAAAAAAAAAAAAAAAAAAAAAAAAAAAAAAAAAAAAAAAAAAAAAAAAAAAAAAAAAAAAAAAAAAAAAAAAAAAAAAAAAAAAAAAAAAAAAAAAAAAAAAAAAAAAAAAAAAAAAAAAAAAAAAAAAAAAAAAAAAAAAAAAAAAAAAAAAAAAAAAAAAAAAAAAAAAAAAAAAAAAAAAAAAAAAAAAAAAAAAAAAAAAAAAAAAAAAAAAAAAAAAAAAAAAAAAAAAAAAAAAAAAAAAAAAAAAAAAAAAAAAAAAAAAAAAAAAAAAAAAAAAAAAAAAAAAAAAAAAAAAAAAAAAAAAAAAAAAAAAAAAAAAAAAAAAAAAAAAAAAAAAAAAAAAAAAAAAAAAAAAAAAAAAAAAAAAAAAAAAAAAAAAAAAAAAAAAAAAAAAAAAAAAAAAAAAAAAAAAAAAAAAAAAAAAAAAAAAAAAAAAAAAAAAAAAAAAAAAAAAAAAAAAAAAAAAAAAAAAAAAAAAAAAAAAAAAAAAAAAAAAAAAAAAAAAAAAAAAAAAAAAAAAAAAAAAAAAAAAAAAAAAAAAAAAAAAAAAAAAAAAAAAAAAAAAAAAAAAAAAAAAAAAAAAAAAAAAAAAAAAAAAAAAAAAAAAAAAAAAAAAAAAAAAAAAAAAAAAAAAAAAAAAAAAAAAAAAAAAAAAAAAAAAAAAAAAAAAAAAAAAAAAAAAAAAAAAAAAAAAAAAAAAAAAAAAAAAAAAAAAAAAAAAAAAAAAAAAAAAAAAAAAAAAAAAAAAAAAAAAAAAAAAAAAAAAAAAAAAAAAAAAAAAAAAAAAAAAAAAAAAAAAAAAAAAAAAAAAAAAAAAAAAAAAAAAAAAAAAAAAAAAAAAAAAAAAAAAAAAAAAAAAAAAAAAAAAAAAAAAAAAAAAAAAAAAAAAAAAAAAAAAAAAAAAAAAAAAAAAAAAAAAAAAAAAAAAAAAAAAAAAAAAAAAAAAAAAAAAAAAAAAAAAAAAAAAAAAAAAAAAAAAAAAAAAAAAAAAAAAAAAAAAAAAAAAAAAAAAAAAAAAAAAAAAAAAAAAAAAAAAAAAAAAAAAAAAAAAAAAAAAAAAAAAAAAAAAAAAAAAAAAAAAAAAAAAAAAAAAAAAAAAAAAAAAAAAAAAAAAAAAAAAAAAAAAAAAAAAAAAAAAAAAAAAAAAAAAAAAAAAAAAAAAAAAAAAAAAAAAAAAAAAAAAAAAAAAAAAAAAAAAAAAAAAAAAAAAAAAAAAAAAAAAAAAAAAAAAAAAAAAAAAAAAAAAAAAAAAAAAAAAAAAAAAAAAAAAAAAAAAAAAAAAAAAAAAAAAAAAAAAAAAAAAAAAAAAAAAAAAAAAAAAAAAAAAAAAAAAAAAAAAAAAAAAAAAAAAAAAAAAAAAAAAAAAAAAAAAAAAAAAAAAAAAAAAAAAAAAAAAAAAAAAAAAAAAAAAAAAAAAAAAAAAAAAAAAAAAAAAAAAAAAAAAAAAAAAAAAAAAAAAAAAAAAAAAAAAAAAAAAAAAAAAAAAAAAAAAAAAAAAAAAAAAAAAAAAAAAAAAAAAAAAAAAAAAAAAAAAAAAAAAAAAAAAAAAAAAAAAAAAAAAAAAAAAAAAAAAAAAAAAAAAAAAAAAAAAAAAAAAAAAAAAAAAAAAAAAAAAAAAAAAAAAAAAAAAAAAAAAAAAAAAAAAAAAAAAAAAAAAAAAAAAAAAAAAAAAAAAAAAAAAAAAAAAAAAAAAAAAAAAAAAAAAAAAAAAAAAAAAAAAAAAAAAAAAAAAAAAAAAAAAAAAAAAAAAAAAAAAAAAAAAAAAAAAAAAAAAAAAAAAAAAAAAAAAAAAAAAAAAAAAAAAAAAAAAAAAAAAAAAAAAAAAAAAAAAAAAAAAAAAAAAAAAAAAAAAAAAAAAAAAAAAAAAAAAAAAAAAAAAAAAAAAAAAAAAAAAAAAAAAAAAAAAAAAAAAAAAAAAAAAAAAAAAAAAAAAAAAAAAAAAAAAAAAAAAAAAAAAAAAAAAAAAAAAAAAAAAAAAAAAAAAAAAAAAAAAAAAAAAAAAAAAAAAAAAAAAAAAAAAAAAAAAAAAAAAAAAAAAAAAAAAAAAAAAAAAAAAAAAAAAAAAAAAAAAAAAAAAAAAAAAAAAAAAAAAAAAAAAAAAAAAAAAAAAAAAAAAAAAAAAAAAAAAAAAAAAAAAAAAAAAAAAAAAAAAAAAAAAAAAAAAAAAAAAAAAAAAAAAAAAAAAAAAAAAAAAAAAAAAAAAAAAAAAAAAAAAAAAAAAAAAAAAAAAAAAAAAAAAAAAAAAAAAAAAAAAAAAAAAAAAAAAAAAAAAAAAAAAAAAAAAAAAAAAAAAAAAAAAAAAAAAAAAAAAAAAAAAAAAAAAAAAAAAAAAAAAAAAAAAAAAAAAAAAAAAAAAAAAAAAAAAAAAAAAAAAAAAAAAAAAAAAAAAAAAAAAAAAAAAAAAAAAAAAAAAAAAAAAAAAAAAAAAAAAAAAAAAAAAAAAAAAAAAAAAAAAAAAAAAAAAAAAAAAAAAAAAAAAAAAAAAAAAAAAAAAAAAAAAAAAAAAAAAAAAAAAAAAAAAAAAAAAAAAAAAAAAAAAAAAAAAAAAAAAAAAAAAAAAAAAAAAAAAAAAAAAAAAAAAAAAAAAAAAAAAAAAAAAAAAAAAAAAAAAAAAAAAAAAAAAAAAAAAAAAAAAAAAAAAAAAAAAAAAAAAAAAAAAAAAAAAAAAAAAAAAAAAAAAAAAAAAAAAAAAAAAAAAAAAAAAAAAAAAAAAAAAAAAAAAAAAAAAAAAAAAAAAAAAAAAAAAAAAAAAAAAAAAAAAAAAAAAAAAAAAAAAAAAAAAAAAAAAAAAAAAAAAAAAAAAAAAAAAAAAAAAAAAAAAAAAAAAAAAAAAAAAAAAAAAAAAAAAAAAAAAAAAAAAAAAAAAAAAAAAAAAAAAAAAAAAAAAAAAAAAAAAAAAAAAAAAAAAAAAAAAAAAAAAAAAAAAAAAAAAAAAAAAAAAAAAAAAAAAAAAAAAAAAAAAAAAAAAAAAAAAAAAAAAAAAAAAAAAAAAAAAAAAAAAAAAAAAAAAAAAAAAAAAAAAAAAAAAAAAAAAAAAAAAAAAAAAAAAAAAAAAAAAAAAAAAAAAAAAAAAAAAAAAAAAAAAAAAAAAAAAAAAAAAAAAAAAAAAAAAAAAAAAAAAAAAAAAAAAAAAAAAAAAAAAAAAAAAAAAAAAAAAAAAAAAAAAAAAAAAAAAAAAAAAAAAAAAAAAAAAAAAAAAAAAAAAAAAAAAAAAAAAAAAAAAAAAAAAAAAAAAAAAAAAAAAAAAAAAAAAAAAAAAAAAAAAAAAAAAAAAAAAAAAAAAAAAAAAAAAAAAAAAAAAAAAAAAAAAAAAAAAAAAAAAAAAAAAAAAAAAAAAAAAAAAAAAAAAAAAAAAAAAAAAAAAAAAAAAAAAAAAAAAAAAAAAAAAAAAAAAAAAAAAAAAAAAAAAAAAAAAAAAAAAAAAAAAAAAAAAAAAAAAAAAAAAAAAAAAAAAAAAAAAAAAAAAAAAAAAAAAAAAAAAAAAAAAAAAAAAAAAAAAAAAAAAAAAAAAAAAAAAAAAAAAAAAAAAAAAAAAAAAAAAAAAAAAAAAAAAAAAAAAAAAAAAAAAAAAAAAAAAAAAAAAAAAAAAAAAAAAAAAAAAAAAAAAAAAAAAAAAAAAAAAAAAAAAAAAAAAAAAAAAAAAAAAAAAAAAAAAAAAAAAAAAAAAAAAAAAAAAAAAAAAAAAAAAAAAAAAAAAAAAAAAAAAAAAAAAAAAAAAAAAAAAAAAAAAAAAAAAAAAAAAAAAAAAAAAAAAAAAAAAAAAAAAAAAAAAAAAAAAAAAAAAAAAAAAAAAAAAAAAAAAAAAAAAAAAAAAAAAAAAAAAAAAAAAAAAAAAAAAAAAAAAAAAAAAAAAAAAAAAAAAAAAAAAAAAAAAAAAAAAAAAAAAAAAAAAAAAAAAAAAAAAAAAAAAAAAAAAAAAAAAAAAAAAAAAAAAAAAAAAAAAAAAAAAAAAAAAAAAAAAAAAAAAAAAAAAAAAAAAAAAAAAAAAAAAAAAAAAAAAAAAAAAAAAAAAAAAAAAAAAAAAAAAAAAAAAAAAAAAAAAAAAAAAAAAAAAAAAAAAAAAAAAAAAAAAAAAAAAAAAAAAAAAAAAAAAAAAAAAAAAAAAAAAAAAAAAAAAAAAAAAAAAAAAAAAAAAAAAAAAAAAAAAAAAAAAAAAAAAAAAAAAAAAAAAAAAAAAAAAAAAAAAAAAAAAAAAAAAAAAAAAAAAAAAAAAAAAAAAAAAAAAAAAAAAAAAAAAAAAAAAAAAAAAAAAAAAAAAAAAAAAAAAAAAAAAAAAAAAAAAAAAAAAAAAAAAAAAAAAAAAAAAAAAAAAAAAAAAAAAAAAAAAAAAAAAAAAAAAAAAAAAAAAAAAAAAAAAAAAAAAAAAAAAAAAAAAAAAAAAAAAAAAAAAAAAAAAAAAAAAAAAAAAAAAAAAAAAAAAAAAAAAAAAAAAAAAAAAAAAAAAAAAAAAAAAAAAAAAAAAAAAAAAAAAAAAAAAAAAAAAAAAAAAAAAAAAAAAAAAAAAAAAAAAAAAAAAAAAAAAAAAAAAAAAAAAAAAAAAAAAAAAAAAAAAAAAAAAAAAAAAAAAAAPZYQOMDNz51ASxEiirm1GAQo4vZJph1q9GAZFx2qnOq/ipRkEAZrgKQRVvHg7e5NJzHVIVGM1HRmsR9z3XSdMo0kBQ=</c2pa:manifest></metadata>
<g transform="translate(-7.826805,1115.830992) scale(0.100000,-0.100000)">
<path d="M6413 11145 c-39 -7 -95 -21 -125 -30 -65 -21 -202 -89 -245 -121
l-32 -24 70 -88 c145 -180 272 -419 394 -742 99 -261 127 -315 183 -351 141
-89 345 -53 687 121 213 108 424 236 825 500 343 226 462 296 705 417 252 126
499 221 757 293 62 18 118 33 123 35 6 2 -728 3 -1630 3 -1301 0 -1655 -2
-1712 -13z"/>
<path d="M10824 11012 c-718 -1364 -2107 -2960 -3533 -4060 -327 -252 -390
-319 -510 -547 -329 -622 -451 -814 -633 -1001 l-89 -91 44 -26 c55 -32 176
-81 259 -104 58 -16 183 -17 1683 -20 l1620 -3 -110 45 c-134 54 -213 95 -345
177 -238 148 -698 519 -959 773 -199 194 -540 573 -540 600 0 6 32 33 71 60
210 147 728 625 1172 1079 181 185 333 336 337 336 5 0 4 -12 -2 -26 -22 -60
-100 -377 -120 -489 -11 -67 -21 -169 -22 -230 -1 -99 2 -117 28 -180 103
-255 236 -462 533 -824 555 -678 765 -928 918 -1096 66 -72 134 -150 153 -174
33 -42 35 -43 80 -36 70 10 218 62 290 101 187 103 341 277 421 477 69 174 64
-11 68 2322 2 1450 0 2148 -8 2230 -32 364 -267 671 -610 798 -36 13 -79 27
-97 30 l-32 6 -67 -127z"/>
<path d="M7395 9054 c-279 -42 -592 -160 -1123 -422 -117 -58 -227 -106 -259
-112 -112 -24 -231 12 -318 93 l-55 53 0 -699 0 -699 47 63 c122 168 302 300
685 502 133 71 459 266 591 355 305 205 620 503 693 657 40 84 26 158 -38 191
-32 17 -162 27 -223 18z"/>
<path d="M5497 3739 c-151 -11 -302 -42 -393 -80 -234 -97 -327 -260 -355
-619 -16 -198 -6 -864 15 -978 60 -336 223 -476 621 -534 67 -10 258 -13 745
-13 580 0 668 2 768 18 406 64 555 219 602 622 13 119 13 829 -1 951 -44 397
-200 555 -614 621 -81 12 -209 16 -685 18 -322 2 -638 -1 -703 -6z m1353 -229
c141 -17 217 -46 277 -105 41 -41 55 -65 72 -118 37 -121 43 -214 43 -662 0
-559 -16 -670 -105 -763 -81 -84 -164 -108 -437 -123 -243 -14 -1223 -6 -1325
11 -218 35 -297 103 -340 291 -15 62 -18 147 -22 514 -5 466 2 604 37 718 46
147 136 210 340 236 95 12 1359 13 1460 1z"/>
<path d="M13940 3744 c-477 -30 -692 -160 -769 -466 -33 -130 -41 -253 -41
-650 0 -508 15 -636 91 -787 88 -177 251 -269 554 -313 128 -18 1351 -19 1480
0 397 57 557 194 621 532 21 113 32 794 15 990 -38 454 -191 615 -646 681 -75
11 -1167 21 -1305 13z m1394 -247 c186 -45 259 -143 286 -382 13 -116 13 -863
0 -980 -21 -193 -74 -287 -190 -339 -113 -51 -179 -56 -760 -62 -565 -7 -873
3 -990 31 -170 41 -242 136 -270 357 -13 110 -13 924 1 1023 6 43 19 107 31
143 39 128 143 197 333 221 39 5 390 8 780 7 621 -2 719 -4 779 -19z"/>
<path d="M134 3635 c260 -491 753 -1059 1294 -1488 66 -53 132 -111 147 -131
14 -19 56 -90 92 -158 123 -231 206 -330 325 -387 36 -17 71 -31 77 -31 8 0
11 107 11 373 l0 373 -26 52 c-37 75 -111 136 -278 231 -211 119 -289 174
-388 271 -125 123 -131 172 -22 178 79 4 191 -32 379 -121 166 -80 211 -88
262 -51 15 11 38 40 51 64 22 44 22 48 22 488 l0 443 -22 -6 c-47 -14 -129
-77 -173 -133 -55 -69 -111 -176 -155 -295 -43 -114 -62 -131 -148 -124 -78 6
-190 60 -382 184 -241 155 -337 210 -447 256 -194 81 -364 117 -555 117 l-120
0 56 -105z"/>
<path d="M2352 2628 l3 -1073 133 -3 132 -3 0 496 0 495 181 0 180 0 652 -449
c359 -246 683 -469 720 -495 l68 -46 190 0 c104 0 189 4 189 8 0 4 -346 250
-770 546 -423 296 -770 542 -770 546 0 4 334 238 743 520 408 282 746 517 751
522 6 4 -80 8 -190 8 l-200 0 -693 -470 -694 -470 -178 0 -179 0 0 470 0 470
-135 0 -135 0 2 -1072z"/>
<path d="M7620 2625 l0 -1076 133 3 132 3 5 957 5 957 1039 -960 1040 -959
175 2 176 3 3 1073 2 1072 -135 0 -135 0 0 -936 c0 -515 -4 -934 -8 -932 -5 2
-447 422 -982 933 l-973 930 -239 3 -238 2 0 -1075z"/>
<path d="M10520 2625 l0 -1076 928 4 c977 4 1004 6 1192 53 256 64 387 196
442 444 19 86 21 135 25 501 6 528 -7 665 -79 818 -37 78 -94 142 -172 192
-75 50 -145 75 -286 107 l-115 26 -967 3 -968 4 0 -1076z m2001 832 c182 -36
254 -100 297 -264 15 -60 17 -125 17 -563 0 -441 -2 -503 -18 -564 -41 -163
-107 -225 -277 -264 -54 -13 -203 -16 -907 -19 l-843 -4 0 851 0 852 828 -5
c686 -4 840 -7 903 -20z"/>
<path d="M718 2540 c13 -41 26 -109 29 -150 10 -137 -38 -220 -342 -586 -82
-98 -187 -221 -233 -271 l-84 -93 138 0 c250 0 385 39 554 158 127 90 303 246
402 356 l99 111 -38 30 c-90 71 -229 200 -384 354 l-165 166 24 -75z"/>
<path d="M10710 530 c0 -18 7 -20 85 -20 l85 0 0 -220 c0 -213 1 -220 20 -220
19 0 20 7 20 220 l0 219 82 3 c70 3 83 6 86 21 3 16 -11 17 -187 17 -184 0
-191 -1 -191 -20z"/>
<path d="M11177 543 c-4 -3 -7 -111 -7 -240 l0 -233 165 0 c140 0 165 2 165
15 0 13 -23 15 -145 15 l-145 0 0 100 0 100 125 0 c104 0 125 2 125 15 0 13
-21 15 -125 15 l-125 0 0 90 0 90 140 0 c133 0 140 1 140 20 0 19 -7 20 -153
20 -85 0 -157 -3 -160 -7z"/>
<path d="M11739 535 c-49 -16 -109 -68 -135 -117 -9 -17 -19 -57 -21 -90 -14
-147 92 -258 246 -258 68 0 147 28 158 57 10 26 -5 25 -62 -2 -48 -24 -64 -27
-117 -22 -114 10 -188 89 -188 201 0 110 55 180 163 207 55 13 123 1 168 -32
38 -27 52 -4 16 27 -51 44 -142 55 -228 29z"/>
<path d="M12110 311 c0 -234 1 -241 20 -241 19 0 20 7 20 115 l0 115 155 0
155 0 0 -115 c0 -108 1 -115 20 -115 19 0 20 7 20 241 0 224 -1 240 -17 237
-16 -3 -18 -18 -21 -111 l-3 -107 -154 0 -154 0 -3 107 c-3 93 -5 108 -20 111
-17 3 -18 -13 -18 -237z"/>
<path d="M12667 543 c-4 -3 -7 -111 -7 -240 0 -226 1 -233 20 -233 19 0 20 8
22 203 l3 204 159 -204 c88 -111 166 -203 173 -203 10 0 13 49 13 240 0 205
-2 240 -15 240 -12 0 -15 -32 -17 -206 l-3 -206 -139 178 c-181 233 -192 245
-209 227z"/>
<path d="M13350 541 c-168 -55 -231 -241 -129 -379 66 -91 209 -120 318 -66
173 86 171 337 -4 426 -43 22 -144 33 -185 19z m125 -32 c98 -25 162 -118 153
-223 -16 -189 -272 -254 -383 -97 -39 56 -47 148 -17 207 28 54 72 93 123 109
55 17 70 18 124 4z"/>
<path d="M13790 310 l0 -240 155 0 c131 0 155 2 155 15 0 13 -22 15 -140 15
l-140 0 0 225 c0 193 -2 225 -15 225 -13 0 -15 -33 -15 -240z"/>
<path d="M14310 541 c-79 -26 -151 -93 -169 -158 -24 -85 -3 -182 52 -242 61
-66 206 -92 292 -52 85 39 137 124 137 221 0 93 -46 171 -125 212 -45 22 -145
33 -187 19z m169 -51 c62 -31 111 -111 111 -179 0 -49 -21 -102 -56 -141 -95
-105 -272 -87 -341 35 -30 54 -31 142 -2 203 48 99 181 137 288 82z"/>
<path d="M14871 538 c-73 -21 -142 -88 -161 -158 -23 -82 -1 -180 53 -239 66
-72 209 -93 305 -45 l52 26 0 95 c0 85 -2 94 -17 91 -15 -3 -18 -17 -21 -90
l-3 -87 -44 -17 c-101 -38 -222 3 -272 91 -30 54 -31 142 -2 203 50 102 208
142 304 77 28 -20 36 -21 45 -10 9 11 6 17 -14 31 -64 41 -151 54 -225 32z"/>
<path d="M15277 543 c-4 -3 -7 -111 -7 -240 0 -226 1 -233 20 -233 19 0 20 7
20 240 0 193 -3 240 -13 240 -8 0 -17 -3 -20 -7z"/>
<path d="M15477 543 c-4 -3 -7 -111 -7 -240 l0 -233 165 0 c140 0 165 2 165
15 0 13 -23 15 -145 15 l-145 0 0 100 0 100 125 0 c104 0 125 2 125 15 0 13
-21 15 -125 15 l-125 0 0 90 0 90 140 0 c133 0 140 1 140 20 0 19 -7 20 -153
20 -85 0 -157 -3 -160 -7z"/>
</g>
</svg>
